<svg id="visual" viewBox="0 0 550 550" width="550" height="550" xmlns="http://www.w3.org/2000/svg" xmlns:xlink="http://www.w3.org/1999/xlink" version="1.1"><rect x="0" y="0" width="550" height="550" fill="#F5F7FB"></rect><defs><linearGradient id="grad1_0" x1="0%" y1="0%" x2="100%" y2="100%"><stop offset="30%" stop-color="#f5f7fb" stop-opacity="1"></stop><stop offset="70%" stop-color="#f5f7fb" stop-opacity="1"></stop></linearGradient></defs><defs><linearGradient id="grad2_0" x1="0%" y1="0%" x2="100%" y2="100%"><stop offset="30%" stop-color="#f5f7fb" stop-opacity="1"></stop><stop offset="70%" stop-color="#f5f7fb" stop-opacity="1"></stop></linearGradient></defs><g transform="translate(550, 0)"><path d="M0 155.6C-28.5 152.3 -57.1 149 -77.8 134.7C-98.5 120.5 -111.3 95.3 -123 71C-134.6 46.7 -145.1 23.4 -155.6 0L0 0Z" fill="#DEEBF8"></path></g><g transform="translate(0, 550)"><path d="M0 -155.6C28.2 -152.1 56.4 -148.6 77.8 -134.7C99.2 -120.9 113.7 -96.7 125.6 -72.5C137.4 -48.3 146.5 -24.2 155.6 0L0 0Z" fill="#DEEBF8"></path></g></svg>