<svg id="visual" viewBox="0 0 900 675" width="900" height="675" xmlns="http://www.w3.org/2000/svg" xmlns:xlink="http://www.w3.org/1999/xlink" version="1.1"><rect x="0" y="0" width="900" height="675" fill="#f5f7fb"></rect><defs><linearGradient id="grad1_0" x1="25%" y1="0%" x2="100%" y2="100%"><stop offset="23.333333333333336%" stop-color="#f5f7fb" stop-opacity="1"></stop><stop offset="76.66666666666666%" stop-color="#f5f7fb" stop-opacity="1"></stop></linearGradient></defs><defs><linearGradient id="grad2_0" x1="0%" y1="0%" x2="75%" y2="100%"><stop offset="23.333333333333336%" stop-color="#f5f7fb" stop-opacity="1"></stop><stop offset="76.66666666666666%" stop-color="#f5f7fb" stop-opacity="1"></stop></linearGradient></defs><g transform="translate(900, 0)"><path d="M0 196.9C-32.3 188.4 -64.6 179.9 -95 164.5C-125.4 149.2 -153.8 127 -170.5 98.4C-187.2 69.9 -192 34.9 -196.9 0L0 0Z" fill="#deebf8"></path></g><g transform="translate(0, 675)"><path d="M0 -196.9C31.2 -186.5 62.5 -176.2 93 -161.1C123.5 -146 153.3 -126.1 170.5 -98.4C187.7 -70.8 192.3 -35.4 196.9 0L0 0Z" fill="#deebf8"></path></g></svg>